<!-- Copyright (c) 2022 NetEase, Inc. All rights reserved. -->
<!-- Use of this source code is governed by a MIT license that can be -->
<!-- found in the LICENSE file. -->

<svg width="18" height="18" viewBox="0 0 18 18" fill="none" xmlns="http://www.w3.org/2000/svg">
<circle cx="9" cy="9" r="9" fill="#337EFF"/>
<path d="M5.15079 8.74074C4.73147 8.38132 4.10017 8.42988 3.74074 8.84921C3.38132 9.26853 3.42988 9.89983 3.84921 10.2593L5.15079 8.74074ZM8 12.5L7.34921 13.2593C7.75869 13.6102 8.37272 13.5733 8.73715 13.1757L8 12.5ZM14.2372 7.17572C14.6103 6.76861 14.5828 6.13604 14.1757 5.76285C13.7686 5.38965 13.136 5.41716 12.7628 5.82428L14.2372 7.17572ZM3.84921 10.2593L7.34921 13.2593L8.65079 11.7407L5.15079 8.74074L3.84921 10.2593ZM8.73715 13.1757L14.2372 7.17572L12.7628 5.82428L7.26285 11.8243L8.73715 13.1757Z" fill="white"/>
</svg>
